<svg width="20" height="26" viewBox="0 0 20 26" fill="none" xmlns="http://www.w3.org/2000/svg">
<path fill-rule="evenodd" clip-rule="evenodd" d="M5.30273 1.00586C4.6334 1.05908 4.00147 1.38119 3.56445 1.91407C3.22082 2.33311 3.05179 2.84462 3.02539 3.36719C2.74869 3.3376 2.47085 3.33471 2.20117 3.38868C1.79439 3.46968 1.40553 3.6441 1.06836 3.9043C0.394009 4.4246 1e-05 5.23089 0 6.08399L0.00585938 6.97071C0.00551938 6.97071 0.00390625 6.98047 0.00390625 6.98047C0.00318625 6.99347 0.00398635 6.99405 0.00390625 6.99805C0.00374625 7.00805 0.00396635 7.01158 0.00390625 7.01758C0.00380635 7.02858 0.00399635 7.03574 0.00390625 7.05274C0.00364635 7.09674 0.00195312 7.16367 0.00195312 7.25977C0.00134313 7.45567 0.001 7.76929 0 8.24219V9.02344C0 9.74301 0.403824 10.3657 0.992188 10.7051V23.6895C0.992188 24.9599 2.0253 26 3.29297 26H13.6992C14.9669 26 16 24.9599 16 23.6895V22.0215H18.166C19.175 22.0215 20 21.2028 20 20.1953V11.8262C20 10.8187 19.175 10 18.166 10H16V8.49414C16.492 8.12474 16.8492 7.57879 16.9629 6.9336C17.1788 5.70849 16.447 4.51921 15.2793 4.13282C15.0587 3.46157 14.5495 2.89351 13.8359 2.64649C12.9619 2.34392 12.0289 2.60593 11.418 3.22852C10.9366 2.57294 10.2024 2.12788 9.375 2.02344C8.78425 1.94887 8.19863 2.05931 7.68164 2.3125C7.32956 1.66593 6.71799 1.18885 5.97852 1.04493C5.75283 1.00103 5.52585 0.988124 5.30273 1.00586ZM5.38086 2.00391C5.51488 1.9935 5.65109 2.0009 5.78711 2.02735C6.27345 2.12201 6.66499 2.45303 6.86133 2.89649C6.75919 3.00022 6.6635 3.11087 6.57617 3.23047C6.49795 3.3377 6.46553 3.47161 6.48605 3.60273C6.50656 3.73386 6.57832 3.85147 6.68555 3.92969C6.79277 4.00791 6.92668 4.04033 7.05781 4.01982C7.18894 3.9993 7.30655 3.92754 7.38477 3.82032C7.81444 3.23192 8.52713 2.92443 9.25 3.01563C9.96757 3.10596 10.5766 3.5773 10.8496 4.2461C10.8484 4.36472 10.8894 4.4799 10.9653 4.57109C11.0411 4.66228 11.1469 4.72356 11.2638 4.74397C11.3807 4.76438 11.501 4.74261 11.6033 4.68254C11.7055 4.62248 11.7832 4.52802 11.8223 4.41602C12.0659 3.71272 12.8128 3.34865 13.5098 3.58985C14.2067 3.83115 14.5745 4.58407 14.3359 5.28907C14.3136 5.35158 14.3039 5.41791 14.3075 5.4842C14.3111 5.55049 14.3278 5.6154 14.3568 5.67515C14.3857 5.7349 14.4262 5.78829 14.476 5.83221C14.5258 5.87614 14.5838 5.90971 14.6467 5.93097C14.7096 5.95224 14.776 5.96077 14.8423 5.95607C14.9085 5.95137 14.9731 5.93353 15.0323 5.90359C15.0916 5.87366 15.1443 5.83223 15.1874 5.78171C15.2304 5.7312 15.263 5.67262 15.2832 5.60938C15.321 5.49767 15.3411 5.38438 15.3613 5.27149C15.8266 5.59679 16.081 6.16719 15.9766 6.75977C15.8407 7.53097 15.1482 8.06234 14.3691 7.99414C13.5901 7.92614 13 7.28115 13 6.49805C13.0015 6.40299 12.9758 6.30948 12.926 6.22849C12.8762 6.14749 12.8044 6.08237 12.7189 6.04076C12.6334 5.99914 12.5378 5.98276 12.4434 5.99353C12.3489 6.0043 12.2595 6.04178 12.1855 6.10157C11.9614 6.03732 11.7312 6 11.5 6C11.0682 6 10.6364 6.11274 10.25 6.33594C9.47719 6.78244 9.00003 7.60936 9 8.50196C8.99943 8.54069 9.00336 8.57936 9.01172 8.61719C9.00366 8.65375 8.99973 8.69109 9 8.72852V11.0391C9 11.5728 8.56989 12 8 12C7.43011 12 7 11.5728 7 11.0391V10.5V8.51563C7 7.43303 6.09521 6.55664 5.00586 6.55664H4.99414V6.55469C3.9048 6.55469 3 7.43108 3 8.51368V8.72852C2.99824 8.74084 2.99693 8.75321 2.99609 8.76563L2.99023 9.01172C2.99019 9.01563 2.99019 9.01954 2.99023 9.02344C2.99023 9.55104 2.55871 9.97852 1.99805 9.97852H1.99219C1.4314 9.99722 1 9.57057 1 9.04297V8.31641H1.00586V8.30664V8.29688V8.25C1.00584 8.207 1.00588 8.13872 1.00586 8.04102C1.00584 7.96502 1.00587 7.77396 1.00586 7.66016C1.00584 7.48036 1.00586 7.3481 1.00586 7.0586L1 6.08399C1.00001 5.53919 1.25117 5.02592 1.67969 4.69532C2.10664 4.36582 2.65842 4.25646 3.17773 4.39453C3.18445 4.4117 3.18429 4.4302 3.19141 4.44727C3.21667 4.50793 3.25363 4.56302 3.30019 4.60939C3.34674 4.65577 3.40198 4.69252 3.46273 4.71754C3.52349 4.74257 3.58858 4.75539 3.65429 4.75526C3.72 4.75513 3.78504 4.74206 3.8457 4.7168C3.90636 4.69154 3.96145 4.65457 4.00783 4.60802C4.0542 4.56146 4.09095 4.50623 4.11598 4.44547C4.14101 4.38472 4.15382 4.31962 4.15369 4.25391C4.15357 4.1882 4.1405 4.12316 4.11523 4.0625C3.90323 3.554 3.98788 2.97358 4.33789 2.54688C4.60039 2.22678 4.97879 2.03514 5.38086 2.00391ZM11.5 7C11.7034 7 11.9031 7.05374 12.0938 7.13672C12.3593 8.13018 13.2151 8.89688 14.2812 8.99024C14.5284 9.01188 14.7673 8.98582 15 8.9375V23.6895C15 24.4263 14.4271 25 13.6992 25H3.29297C2.56511 25 1.99219 24.4263 1.99219 23.6895V10.9785H1.99805C3.08614 10.9785 3.99023 10.1049 3.99023 9.02344L3.99414 8.84375C3.99845 8.81597 4.00041 8.78788 4 8.75977V8.51368C4 7.98498 4.43224 7.55469 4.99414 7.55469H5.00586C5.56777 7.55469 6 7.98498 6 8.51368V10.498V11.0391C6 12.1241 6.90749 13 8 13C9.09251 13 10 12.1241 10 11.0391V8.72852C10.0006 8.68978 9.99664 8.65111 9.98828 8.61328C9.99634 8.57673 10.0003 8.53939 10 8.50196C10 7.96476 10.2852 7.46968 10.75 7.20118C10.9824 7.06688 11.2412 7 11.5 7ZM16 11H18.166C18.6661 11 19 11.3342 19 11.8262V20.1953C19 20.6874 18.6661 21.0215 18.166 21.0215H16V11ZM4.49219 13.3457C4.42653 13.3467 4.36171 13.3607 4.30144 13.3868C4.24117 13.4128 4.18662 13.4505 4.14092 13.4977C4.09521 13.5448 4.05925 13.6005 4.03507 13.6616C4.01089 13.7226 3.99897 13.7879 4 13.8535V22.7969C3.99906 22.8631 4.0113 22.9289 4.03601 22.9904C4.06072 23.0519 4.0974 23.1078 4.14392 23.155C4.19044 23.2022 4.24588 23.2397 4.30701 23.2653C4.36814 23.2908 4.43374 23.304 4.5 23.304C4.56626 23.304 4.63186 23.2908 4.69299 23.2653C4.75412 23.2397 4.80956 23.2022 4.85608 23.155C4.9026 23.1078 4.93928 23.0519 4.96399 22.9904C4.9887 22.9289 5.00094 22.8631 5 22.7969V13.8535C5.00105 13.7865 4.98863 13.72 4.96348 13.658C4.93833 13.5959 4.90097 13.5395 4.8536 13.4921C4.80624 13.4447 4.74984 13.4074 4.68775 13.3822C4.62567 13.3571 4.55916 13.3447 4.49219 13.3457ZM8.49219 13.3457C8.42653 13.3467 8.36171 13.3607 8.30144 13.3868C8.24117 13.4128 8.18662 13.4505 8.14092 13.4977C8.09521 13.5448 8.05925 13.6005 8.03507 13.6616C8.01089 13.7226 7.99897 13.7879 8 13.8535V22.7969C7.99906 22.8631 8.0113 22.9289 8.03601 22.9904C8.06072 23.0519 8.0974 23.1078 8.14392 23.155C8.19044 23.2022 8.24588 23.2397 8.30701 23.2653C8.36814 23.2908 8.43374 23.304 8.5 23.304C8.56626 23.304 8.63186 23.2908 8.69299 23.2653C8.75412 23.2397 8.80956 23.2022 8.85608 23.155C8.9026 23.1078 8.93928 23.0519 8.96399 22.9904C8.9887 22.9289 9.00094 22.8631 9 22.7969V13.8535C9.00105 13.7865 8.98863 13.72 8.96348 13.658C8.93833 13.5959 8.90097 13.5395 8.8536 13.4921C8.80624 13.4447 8.74984 13.4074 8.68775 13.3822C8.62567 13.3571 8.55916 13.3447 8.49219 13.3457ZM12.4922 13.3457C12.4265 13.3467 12.3617 13.3607 12.3014 13.3868C12.2412 13.4128 12.1866 13.4505 12.1409 13.4977C12.0952 13.5448 12.0592 13.6005 12.0351 13.6616C12.0109 13.7226 11.999 13.7879 12 13.8535V22.7969C11.9991 22.8631 12.0113 22.9289 12.036 22.9904C12.0607 23.0519 12.0974 23.1078 12.1439 23.155C12.1904 23.2022 12.2459 23.2397 12.307 23.2653C12.3681 23.2908 12.4337 23.304 12.5 23.304C12.5663 23.304 12.6319 23.2908 12.693 23.2653C12.7541 23.2397 12.8096 23.2022 12.8561 23.155C12.9026 23.1078 12.9393 23.0519 12.964 22.9904C12.9887 22.9289 13.0009 22.8631 13 22.7969V13.8535C13.001 13.7865 12.9886 13.72 12.9635 13.658C12.9383 13.5959 12.901 13.5395 12.8536 13.4921C12.8062 13.4447 12.7498 13.4074 12.6878 13.3822C12.6257 13.3571 12.5592 13.3447 12.4922 13.3457V13.3457Z" fill="black"/>
</svg>
