<svg xmlns="http://www.w3.org/2000/svg" viewBox="0 0 24 30" fill="none" x="0px" y="0px"><path d="M9 15V17H7V15H9Z" fill="black"/><path d="M9 13V11H7V13H9Z" fill="black"/><path d="M11 15H13V17H11V15Z" fill="black"/><path d="M13 11H11V13H13V11Z" fill="black"/><path d="M17 15V17H15V15H17Z" fill="black"/><path d="M17 13V11H15V13H17Z" fill="black"/><path fill-rule="evenodd" clip-rule="evenodd" d="M6 3V5H5C3.89543 5 3 5.89543 3 7V19C3 20.1046 3.89543 21 5 21H19C20.1046 21 21 20.1046 21 19V7C21 5.89543 20.1046 5 19 5H18V3H16V5H8V3H6ZM19 9H5V19H19V9Z" fill="black"/><text x="0" y="39" fill="#000000" font-size="5px" font-weight="bold" font-family="'Helvetica Neue', Helvetica, Arial-Unicode, Arial, Sans-serif">Created by Julian Kraan</text><text x="0" y="44" fill="#000000" font-size="5px" font-weight="bold" font-family="'Helvetica Neue', Helvetica, Arial-Unicode, Arial, Sans-serif">from the Noun Project</text></svg>