<svg width="20" height="24" viewBox="0 0 20 24" fill="none" xmlns="http://www.w3.org/2000/svg">
<path d="M11.5168 12.8896C11.4515 12.8896 11.3869 12.8762 11.3269 12.8504C11.2669 12.8245 11.2128 12.7867 11.168 12.7392L4.128 5.3312C4.06362 5.26304 4.02061 5.17752 4.00428 5.08519C3.98795 4.99287 3.99902 4.89778 4.03612 4.81168C4.07322 4.72557 4.13472 4.65221 4.21303 4.60066C4.29135 4.54911 4.38304 4.52163 4.4768 4.5216H18.5632C18.657 4.52163 18.7487 4.54911 18.827 4.60066C18.9053 4.65221 18.9668 4.72557 19.0039 4.81168C19.041 4.89778 19.052 4.99287 19.0357 5.08519C19.0194 5.17752 18.9764 5.26304 18.912 5.3312L11.872 12.7392C11.8264 12.7875 11.7713 12.8258 11.7102 12.8516C11.649 12.8775 11.5832 12.8905 11.5168 12.8896V12.8896ZM5.5872 5.4816L11.5168 11.712L17.4432 5.4816H5.5872Z" fill="black"/>
<path d="M16.7968 7.2H6.0864C5.9591 7.2 5.83701 7.14943 5.74699 7.05941C5.65697 6.96939 5.6064 6.8473 5.6064 6.72C5.6064 6.5927 5.65697 6.47061 5.74699 6.38059C5.83701 6.29057 5.9591 6.24 6.0864 6.24H16.7968C16.9241 6.24 17.0462 6.29057 17.1362 6.38059C17.2262 6.47061 17.2768 6.5927 17.2768 6.72C17.2768 6.8473 17.2262 6.96939 17.1362 7.05941C17.0462 7.14943 16.9241 7.2 16.7968 7.2V7.2Z" fill="black"/>
<path d="M11.5168 23.1616C11.3895 23.1616 11.2674 23.111 11.1774 23.021C11.0874 22.931 11.0368 22.8089 11.0368 22.6816V12.32C11.0368 12.1927 11.0874 12.0706 11.1774 11.9806C11.2674 11.8906 11.3895 11.84 11.5168 11.84C11.6441 11.84 11.7662 11.8906 11.8562 11.9806C11.9462 12.0706 11.9968 12.1927 11.9968 12.32V22.6816C11.9968 22.8089 11.9462 22.931 11.8562 23.021C11.7662 23.111 11.6441 23.1616 11.5168 23.1616V23.1616Z" fill="black"/>
<path d="M13.6032 23.1616H9.2768C9.1495 23.1616 9.02741 23.111 8.93739 23.021C8.84737 22.931 8.7968 22.8089 8.7968 22.6816C8.7968 22.5543 8.84737 22.4322 8.93739 22.3422C9.02741 22.2522 9.1495 22.2016 9.2768 22.2016H13.6032C13.7305 22.2016 13.8526 22.2522 13.9426 22.3422C14.0326 22.4322 14.0832 22.5543 14.0832 22.6816C14.0832 22.8089 14.0326 22.931 13.9426 23.021C13.8526 23.111 13.7305 23.1616 13.6032 23.1616V23.1616Z" fill="black"/>
<path d="M4.6912 8.304C3.95247 8.304 3.23033 8.0849 2.61615 7.67442C2.00196 7.26393 1.52331 6.68051 1.24076 5.99795C0.958206 5.31539 0.88444 4.56437 1.02879 3.83988C1.17314 3.11539 1.52913 2.44999 2.05171 1.92785C2.5743 1.40571 3.24001 1.0503 3.96462 0.906566C4.68923 0.762835 5.4402 0.837245 6.12251 1.12038C6.80483 1.40352 7.38784 1.88267 7.7978 2.49721C8.20775 3.11175 8.42623 3.83407 8.4256 4.5728C8.42608 4.7376 8.41539 4.90224 8.3936 5.0656C8.37663 5.1929 8.30978 5.30825 8.20776 5.38627C8.10574 5.46428 7.9769 5.49857 7.8496 5.4816C7.7223 5.46463 7.60695 5.39778 7.52893 5.29576C7.45092 5.19374 7.41663 5.0649 7.4336 4.9376C7.45032 4.81671 7.45887 4.69484 7.4592 4.5728C7.45983 4.02394 7.29766 3.48722 6.99319 3.03056C6.68872 2.57389 6.25564 2.21779 5.74874 2.00731C5.24184 1.79683 4.6839 1.74143 4.14551 1.84812C3.60711 1.95481 3.11246 2.21879 2.72414 2.60667C2.33581 2.99455 2.07126 3.4889 1.96395 4.02716C1.85664 4.56543 1.91139 5.12344 2.12128 5.63058C2.33118 6.13772 2.68678 6.57121 3.14309 6.87621C3.59941 7.1812 4.13594 7.344 4.6848 7.344C5.25891 7.34398 5.81854 7.16378 6.2848 6.8288C6.33607 6.79203 6.39408 6.76572 6.45551 6.75137C6.51695 6.73701 6.58061 6.7349 6.64287 6.74515C6.70512 6.75541 6.76474 6.77782 6.81833 6.81111C6.87192 6.84441 6.91843 6.88793 6.9552 6.9392C6.99197 6.99047 7.01828 7.04848 7.03263 7.10991C7.04699 7.17135 7.0491 7.23501 7.03884 7.29726C7.02859 7.35952 7.00618 7.41914 6.97289 7.47273C6.93959 7.52632 6.89607 7.57283 6.8448 7.6096C6.21709 8.06033 5.46398 8.30316 4.6912 8.304V8.304Z" fill="black"/>
</svg>
