<svg width="16" height="16" viewBox="0 0 561 561" fill="none" xmlns="http://www.w3.org/2000/svg">
<path d="M280.5 178.5C224.4 178.5 178.5 224.4 178.5 280.5C178.5 336.6 224.4 382.5 280.5 382.5C336.6 382.5 382.5 336.6 382.5 280.5C382.5 224.4 336.6 178.5 280.5 178.5ZM507.45 255C494.7 147.9 410.55 63.75 306 53.55V0H255V53.55C147.9 63.75 63.75 147.9 53.55 255H0V306H53.55C66.3 413.1 150.45 497.25 255 507.45V561H306V507.45C413.1 494.7 497.25 410.55 507.45 306H561V255H507.45ZM280.5 459C181.05 459 102 379.95 102 280.5C102 181.05 181.05 102 280.5 102C379.95 102 459 181.05 459 280.5C459 379.95 379.95 459 280.5 459Z"/>
</svg>
