<svg width="16" height="16" viewBox="0 0 16 16" fill="none" xmlns="http://www.w3.org/2000/svg">
<path fill-rule="evenodd" clip-rule="evenodd" d="M14.4727 7.27273C14.1091 4.21818 11.7091 1.81818 8.72727 1.52727V0H7.27273V1.52727C4.21818 1.81818 1.81818 4.21818 1.52727 7.27273H0V8.72727H1.52727C1.89091 11.7818 4.29091 14.1818 7.27273 14.4727V16H8.72727V14.4727C11.7818 14.1091 14.1818 11.7091 14.4727 8.72727H16V7.27273H14.4727ZM8.00003 13.0909C5.16366 13.0909 2.90912 10.8364 2.90912 8C2.90912 5.16363 5.16366 2.90909 8.00003 2.90909C10.8364 2.90909 13.0909 5.16363 13.0909 8C13.0909 10.8364 10.8364 13.0909 8.00003 13.0909Z" fill="white"/>
<path class="gps-bullet" d="M7.99997 5.09091C6.39997 5.09091 5.09088 6.4 5.09088 8C5.09088 9.6 6.39997 10.9091 7.99997 10.9091C9.59997 10.9091 10.9091 9.6 10.9091 8C10.9091 6.4 9.59997 5.09091 7.99997 5.09091Z" fill="white"/>
</svg>
