<svg width="86" height="24" viewBox="0 0 86 24" fill="none" xmlns="http://www.w3.org/2000/svg">
<g filter="url(#filter0_d)">
<path d="M15.58 18.4C15.14 18.7067 14.56 18.9267 13.84 19.06C13.12 19.2067 12.38 19.28 11.62 19.28C10.7267 19.28 9.86667 19.1467 9.04 18.88C8.22667 18.6133 7.5 18.1867 6.86 17.6C6.23333 17.0133 5.73333 16.26 5.36 15.34C4.98667 14.42 4.8 13.3067 4.8 12C4.8 10.64 5.01333 9.5 5.44 8.58C5.86667 7.64667 6.41333 6.9 7.08 6.34C7.74667 5.76667 8.48667 5.35333 9.3 5.1C10.1133 4.84667 10.9133 4.72 11.7 4.72C12.5667 4.72 13.2933 4.77333 13.88 4.88C14.48 4.98667 14.9733 5.11333 15.36 5.26L14.78 7.74C14.4467 7.59333 14.0533 7.48667 13.6 7.42C13.16 7.35333 12.6 7.32 11.92 7.32C11.32 7.32 10.7733 7.42 10.28 7.62C9.8 7.80667 9.38667 8.09333 9.04 8.48C8.69333 8.86667 8.42 9.35333 8.22 9.94C8.03333 10.5267 7.94 11.2133 7.94 12C7.94 12.6933 8.02667 13.3267 8.2 13.9C8.37333 14.4733 8.63333 14.9667 8.98 15.38C9.32667 15.7933 9.76667 16.1133 10.3 16.34C10.8333 16.5667 11.4533 16.68 12.16 16.68C12.8133 16.68 13.36 16.62 13.8 16.5C14.2533 16.38 14.6533 16.2267 15 16.04L15.58 18.4ZM25.7872 18.04C25.3339 18.3867 24.7139 18.6867 23.9272 18.94C23.1539 19.18 22.3205 19.3 21.4272 19.3C19.6272 19.3 18.3072 18.8067 17.4672 17.82C16.6272 16.8333 16.2072 15.48 16.2072 13.76C16.2072 11.9333 16.6805 10.5533 17.6272 9.62C18.5739 8.67333 19.9072 8.2 21.6272 8.2C22.1872 8.2 22.7405 8.27333 23.2872 8.42C23.8339 8.55333 24.3205 8.78667 24.7472 9.12C25.1739 9.44 25.5139 9.88 25.7672 10.44C26.0339 10.9867 26.1672 11.6667 26.1672 12.48C26.1672 12.76 26.1472 13.0667 26.1072 13.4C26.0805 13.7333 26.0272 14.08 25.9472 14.44H18.9472C19.0139 15.3467 19.2739 16.02 19.7272 16.46C20.1939 16.8867 20.9472 17.1 21.9872 17.1C22.6139 17.1 23.1739 17.0133 23.6672 16.84C24.1739 16.6533 24.5605 16.4667 24.8272 16.28L25.7872 18.04ZM21.5872 10.4C20.7605 10.4 20.1472 10.6267 19.7472 11.08C19.3472 11.52 19.1139 12.0867 19.0472 12.78H23.5672C23.6205 12.0467 23.4872 11.4667 23.1672 11.04C22.8472 10.6133 22.3205 10.4 21.5872 10.4ZM35.7622 19V13.24C35.7622 12.3333 35.6222 11.68 35.3422 11.28C35.0622 10.88 34.5689 10.68 33.8622 10.68C33.2622 10.68 32.7489 10.8467 32.3222 11.18C31.9089 11.5 31.6222 11.9133 31.4622 12.42C31.4622 13.5133 31.4622 14.6133 31.4622 15.72C31.4755 16.8133 31.4822 17.9067 31.4822 19H28.6822V8.5H30.8822L31.1822 10H31.4822C31.8289 9.50667 32.2889 9.08667 32.8622 8.74C33.4355 8.38 34.1822 8.2 35.1022 8.2C35.6622 8.2 36.1555 8.27333 36.5822 8.42C37.0222 8.55333 37.3822 8.79333 37.6622 9.14C37.9555 9.47333 38.1755 9.92667 38.3222 10.5C38.4822 11.0733 38.5622 11.7933 38.5622 12.66V19H35.7622ZM40.1561 8.5H41.7561V7.06L44.5561 6.32V8.5H47.3761V10.84H44.5561V14.48C44.5561 15.32 44.6361 15.9267 44.7961 16.3C44.9694 16.66 45.3028 16.84 45.7961 16.84C46.1028 16.84 46.3628 16.82 46.5761 16.78C46.7894 16.7267 47.0161 16.6467 47.2561 16.54L47.8361 18.64C47.4094 18.8267 46.9161 18.9867 46.3561 19.12C45.8094 19.2533 45.2761 19.32 44.7561 19.32C43.7161 19.32 42.9561 19.0667 42.4761 18.56C41.9961 18.04 41.7561 17.2133 41.7561 16.08V10.84H40.1561V8.5ZM55.722 11.06C55.322 10.9267 54.922 10.86 54.522 10.86C53.9354 10.86 53.4487 11 53.062 11.28C52.6887 11.56 52.442 11.9133 52.322 12.34V19H49.522V8.5H51.722L52.022 9.96H52.282C52.5487 9.41333 52.902 8.99333 53.342 8.7C53.7954 8.40667 54.3087 8.26 54.882 8.26C55.242 8.26 55.6554 8.33333 56.122 8.48L55.722 11.06ZM57.547 9.22C58.147 8.95333 58.8804 8.73333 59.747 8.56C60.627 8.38667 61.5337 8.3 62.467 8.3C63.2004 8.3 63.8137 8.38667 64.307 8.56C64.8137 8.73333 65.2137 8.98667 65.507 9.32C65.8004 9.64 66.007 10.0333 66.127 10.5C66.2604 10.9533 66.327 11.46 66.327 12.02C66.327 12.7 66.3004 13.3733 66.247 14.04C66.1937 14.7067 66.167 15.4133 66.167 16.16C66.167 16.6667 66.2004 17.16 66.267 17.64C66.3337 18.12 66.4404 18.58 66.587 19.02H64.307L63.847 17.46H63.607C63.2604 17.9267 62.8204 18.3267 62.287 18.66C61.7537 18.9933 61.067 19.16 60.227 19.16C59.7204 19.16 59.2537 19.0867 58.827 18.94C58.4137 18.7933 58.0537 18.5867 57.747 18.32C57.4537 18.04 57.2204 17.7133 57.047 17.34C56.887 16.9667 56.807 16.56 56.807 16.12C56.807 14.9333 57.2004 14.04 57.987 13.44C58.787 12.8267 59.9937 12.52 61.607 12.52C61.9804 12.52 62.3537 12.5533 62.727 12.62C63.1004 12.6733 63.3604 12.7133 63.507 12.74C63.547 12.46 63.567 12.22 63.567 12.02C63.567 11.5133 63.4404 11.14 63.187 10.9C62.9337 10.66 62.4604 10.54 61.767 10.54C61.127 10.54 60.5004 10.62 59.887 10.78C59.287 10.9267 58.7537 11.1133 58.287 11.34L57.547 9.22ZM61.207 16.92C61.8337 16.92 62.3337 16.7733 62.707 16.48C63.0804 16.1867 63.3537 15.88 63.527 15.56V14.36C63.4604 14.3333 63.3537 14.3067 63.207 14.28C63.0737 14.2533 62.9204 14.2267 62.747 14.2C62.587 14.1733 62.4204 14.1533 62.247 14.14C62.087 14.1267 61.9404 14.12 61.807 14.12C61.087 14.12 60.5537 14.2533 60.207 14.52C59.8604 14.7733 59.687 15.0933 59.687 15.48C59.687 15.96 59.8204 16.32 60.087 16.56C60.367 16.8 60.7404 16.92 61.207 16.92ZM72.0891 15.32C72.0891 16.3333 72.4157 16.84 73.0691 16.84C73.2557 16.84 73.4291 16.8267 73.5891 16.8C73.7624 16.76 73.9624 16.7 74.1891 16.62L74.5291 18.8C74.2624 18.92 73.8824 19.0333 73.3891 19.14C72.9091 19.26 72.4091 19.32 71.8891 19.32C71.0491 19.32 70.4024 19.1333 69.9491 18.76C69.5091 18.3867 69.2891 17.7733 69.2891 16.92V5H72.0891V15.32ZM78.8273 15.32C78.8273 16.3333 79.154 16.84 79.8073 16.84C79.994 16.84 80.1673 16.8267 80.3273 16.8C80.5007 16.76 80.7007 16.7 80.9273 16.62L81.2673 18.8C81.0007 18.92 80.6207 19.0333 80.1273 19.14C79.6473 19.26 79.1473 19.32 78.6273 19.32C77.7873 19.32 77.1407 19.1333 76.6873 18.76C76.2473 18.3867 76.0273 17.7733 76.0273 16.92V5H78.8273V15.32Z" fill="white"/>
</g>
<defs>
<filter id="filter0_d" x="0.800049" y="0.719971" width="84.4673" height="22.6" filterUnits="userSpaceOnUse" color-interpolation-filters="sRGB">
<feFlood flood-opacity="0" result="BackgroundImageFix"/>
<feColorMatrix in="SourceAlpha" type="matrix" values="0 0 0 0 0 0 0 0 0 0 0 0 0 0 0 0 0 0 127 0"/>
<feOffset/>
<feGaussianBlur stdDeviation="2"/>
<feColorMatrix type="matrix" values="0 0 0 0 0 0 0 0 0 0 0 0 0 0 0 0 0 0 0.3 0"/>
<feBlend mode="normal" in2="BackgroundImageFix" result="effect1_dropShadow"/>
<feBlend mode="normal" in="SourceGraphic" in2="effect1_dropShadow" result="shape"/>
</filter>
</defs>
</svg>
