<svg width="18" height="13" viewBox="0 0 18 13" fill="none" xmlns="http://www.w3.org/2000/svg">
<path d="M2.76003 11.9761V5.26953C2.21995 5.18134 1.73427 4.94711 1.38462 4.6062C1.03498 4.2653 0.842672 3.8385 0.840027 3.39753V1.22409C0.840027 1.12224 0.890598 1.02457 0.980616 0.952559C1.07063 0.880545 1.19272 0.840088 1.32003 0.840088V0.840088C1.44733 0.840088 1.56942 0.880545 1.65944 0.952559C1.74946 1.02457 1.80003 1.12224 1.80003 1.22409V3.39753C1.80001 3.7014 1.95008 3.99297 2.21754 4.20874C2.485 4.42451 2.8482 4.547 3.22803 4.54953H3.70803L3.72003 11.9761C3.72003 12.0779 3.66946 12.1756 3.57944 12.2476C3.48942 12.3196 3.36733 12.3601 3.24003 12.3601C3.11272 12.3601 2.99063 12.3196 2.90062 12.2476C2.8106 12.1756 2.76003 12.0779 2.76003 11.9761Z" fill="black"/>
<path d="M3.72483 1.22409C3.72483 1.01201 3.50993 0.840088 3.24483 0.840088C2.97974 0.840088 2.76483 1.01201 2.76483 1.22409V3.33609C2.76483 3.54817 2.97974 3.72009 3.24483 3.72009C3.50993 3.72009 3.72483 3.54817 3.72483 3.33609V1.22409Z" fill="black"/>
<path d="M5.64481 1.22409C5.64481 1.01201 5.42991 0.840088 5.16481 0.840088C4.89972 0.840088 4.68481 1.01201 4.68481 1.22409V3.33609C4.68481 3.54817 4.89972 3.72009 5.16481 3.72009C5.42991 3.72009 5.64481 3.54817 5.64481 3.33609V1.22409Z" fill="black"/>
<path d="M17.16 1.22399V1.12031C17.16 1.08317 17.1508 1.04641 17.1329 1.01214C17.115 0.977881 17.0888 0.946807 17.0557 0.920726C17.0227 0.894645 16.9835 0.874077 16.9404 0.860218C16.8973 0.846358 16.8513 0.839483 16.8048 0.839992H6.94564C6.85354 0.841002 6.76564 0.87098 6.70096 0.923441C6.63629 0.975903 6.60003 1.04663 6.60004 1.12031C6.60004 3.33599 8.67364 5.23103 11.4 5.43071V11.592H8.52004C8.39273 11.592 8.27064 11.6324 8.18063 11.7045C8.09061 11.7765 8.04004 11.8741 8.04004 11.976C8.04004 12.0778 8.09061 12.1755 8.18063 12.2475C8.27064 12.3195 8.39273 12.36 8.52004 12.36H15.24C15.3673 12.36 15.4894 12.3195 15.5794 12.2475C15.6695 12.1755 15.72 12.0778 15.72 11.976C15.72 11.8741 15.6695 11.7765 15.5794 11.7045C15.4894 11.6324 15.3673 11.592 15.24 11.592H12.36V5.42879C13.6715 5.33302 14.8908 4.84865 15.7789 4.07073C16.6669 3.29281 17.1595 2.2775 17.16 1.22399ZM7.58164 1.60799H16.1688C16.0515 2.45333 15.5486 3.23436 14.7564 3.80161C13.9642 4.36886 12.9384 4.6825 11.8752 4.6825C10.8121 4.6825 9.78624 4.36886 8.99406 3.80161C8.20188 3.23436 7.69899 2.45333 7.58164 1.60799V1.60799Z" fill="black"/>
</svg>
